<?xml version="1.0" encoding="UTF-8" standalone="no"?>
<!-- Created with Inkscape (http://www.inkscape.org/) -->

<svg
   width="1800"
   height="1800"
   viewBox="0 0 1800 1800"
   version="1.1"
   id="svg1"
   xml:space="preserve"
   inkscape:version="1.3.2 (091e20ef0f, 2023-11-25)"
   sodipodi:docname="VOID logo no text - mono white (draft).svg"
   inkscape:export-filename="VOID logo no text - white (draft).png"
   inkscape:export-xdpi="200"
   inkscape:export-ydpi="200"
   xmlns:inkscape="http://www.inkscape.org/namespaces/inkscape"
   xmlns:sodipodi="http://sodipodi.sourceforge.net/DTD/sodipodi-0.dtd"
   xmlns="http://www.w3.org/2000/svg"
   xmlns:svg="http://www.w3.org/2000/svg"><sodipodi:namedview
     id="namedview1"
     pagecolor="#ffffff"
     bordercolor="#000000"
     borderopacity="0.25"
     inkscape:showpageshadow="2"
     inkscape:pageopacity="0.0"
     inkscape:pagecheckerboard="0"
     inkscape:deskcolor="#d1d1d1"
     inkscape:document-units="px"
     inkscape:zoom="0.18985081"
     inkscape:cx="1208.8439"
     inkscape:cy="387.1461"
     inkscape:window-width="1920"
     inkscape:window-height="1042"
     inkscape:window-x="0"
     inkscape:window-y="38"
     inkscape:window-maximized="1"
     inkscape:current-layer="layer1" /><defs
     id="defs1" /><g
     inkscape:label="Ebene 1"
     inkscape:groupmode="layer"
     id="layer1"
     transform="translate(-215.17333,250.78815)"><path
       id="path2"
       style="fill:#ffffff;fill-opacity:1;fill-rule:evenodd;stroke-width:12.0461"
       d="M 1115.1703,-250.78815 A 900.00145,900.00145 0 0 0 586.64345,-76.507403 L 793.56843,130.41757 a 611.76506,611.76506 0 0 1 321.60187,-92.964713 611.76506,611.76506 0 0 1 611.7682,611.762023 611.76506,611.76506 0 0 1 -92.1023,322.47645 l 207.5323,207.53227 A 900.00145,900.00145 0 0 0 2015.1733,649.20885 900.00145,900.00145 0 0 0 1704.5461,-30.963382 900.00145,900.00145 0 0 0 1115.1703,-250.78815 Z m -19.9631,620.85388 a 279.85978,279.85978 0 0 0 -177.92472,81.25529 279.85978,279.85978 0 0 0 0,395.78172 279.85978,279.85978 0 0 0 395.78172,3e-5 279.85978,279.85978 0 0 0 0,-395.78175 279.85978,279.85978 0 0 0 -217.857,-81.25529 z" /><path
       id="path4"
       style="fill:#ffffff;fill-opacity:1;fill-rule:evenodd;stroke-width:38.7394"
       d="M 389.46012,120.68201 A 900.00147,900.00147 0 0 0 215.17333,649.20889 900.00147,900.00147 0 0 0 1115.1703,1549.2119 900.00147,900.00147 0 0 0 1645.1852,1376.407 L 1437.659,1168.8808 a 611.76507,611.76507 0 0 1 -322.4887,92.1024 611.76507,611.76507 0 0 1 -611.76203,-611.76825 611.76507,611.76507 0 0 1 92.97076,-321.61403 z" /></g></svg>
